<?xml version="1.0" encoding="UTF-8"?>
<svg width="10px" height="10px" viewBox="0 0 10 10" version="1.1" xmlns="http://www.w3.org/2000/svg" xmlns:xlink="http://www.w3.org/1999/xlink">
    <title>External_Link</title>
    <g id="DB-Regio-Bot-MVP" stroke="none" stroke-width="1" fill="none" fill-rule="evenodd">
        <g id="32dp-Icon/Navigation/Close-Copy" transform="translate(-5.000000, -5.000000)" fill="#646973">
            <path d="M7.0084973,5 L14.0050162,5 C14.5185297,5 15,5.38513514 15,5.89864865 L15,12.9915027 C15,13.5050162 14.5506757,13.9864865 14.0050162,13.9864865 C13.4594595,13.9864865 13.0101351,13.5693081 13.0101351,12.9915027 L13.0101351,8.40202703 L7.16891892,14.2432432 C7.0084973,14.4358108 6.78378378,14.5 6.55907027,14.5 C5.98147027,14.5 5.5,14.0185297 5.5,13.4409297 C5.5,13.2482595 5.56418919,13.0236486 5.69256757,12.8952703 L11.597973,6.98986486 L7.0084973,6.98986486 C6.43069189,6.98986486 6.01351351,6.54054054 6.01351351,6.02702703 C6.01351351,5.48147027 6.43069189,5 7.0084973,5 Z" id="🎨-Color"></path>
        </g>
    </g>
</svg>