<?xml version="1.0" encoding="UTF-8"?>
<svg width="14px" height="20px" viewBox="0 0 14 20" version="1.1" xmlns="http://www.w3.org/2000/svg" xmlns:xlink="http://www.w3.org/1999/xlink">
    <title>microphone_recording</title>
    <g id="DB-Regio-Bot-MVP" stroke="none" stroke-width="1" fill="none" fill-rule="evenodd">
        <g id="Bot_Mobile_Buttons-Copy-2" transform="translate(-29.000000, -685.000000)" fill="#EC0016">
            <g id="microphone_recording" transform="translate(24.000000, 683.000000)">
                <path d="M18,10 C18.5522847,10 19,10.4477153 19,11 C19,14.5275105 16.3937554,17.5160607 13,18 L13,20 L15,20 C15.5522847,20 16,20.4477153 16,21 C16,21.5128358 15.55,22 15,22 L9,22 C8.44771525,22 8,21.5522847 8,21 C8,20.4871642 8.45,20 9,20 L11,20 L11,18 C7.60575619,17.5164922 5,14.5278577 5,11 C5,10.4477153 5.44771525,10 6,10 C6.55228475,10 7,10.4477153 7,11 C7,13.7614237 9.23857625,16 12,16 C14.7614237,16 17,13.7614237 17,11 C17,10.4477153 17.4477153,10 18,10 Z M12,2 C13.8685634,2 15.5,3.57 15.5,5.5 L15.5,11 C15.5,12.9329966 13.9329966,14.5 12,14.5 C10.1314366,14.5 8.5,12.93 8.5,11 L8.5,5.5 C8.5,3.56700338 10.0670034,2 12,2 Z M12,4 C11.2203039,4 10.5,4.67 10.5,5.5 L10.5,11 C10.5,11.8284271 11.1715729,12.5 12,12.5 C12.7796961,12.5 13.5,11.83 13.5,11 L13.5,5.5 C13.5,4.67157288 12.8284271,4 12,4 Z" id="🎨-Color"></path>
            </g>
        </g>
    </g>
</svg>