<?xml version="1.0" encoding="UTF-8"?>
<svg width="24px" height="24px" viewBox="0 0 24 24" version="1.1" xmlns="http://www.w3.org/2000/svg" xmlns:xlink="http://www.w3.org/1999/xlink">
    <title>microphone_off</title>
    <g id="DB-Regio-Bot-MVP" stroke="none" stroke-width="1" fill="none" fill-rule="evenodd">
        <g id="Bot_Mobile_Buttons-Copy-4" transform="translate(-24.000000, -683.000000)">
            <g id="microphone_off" transform="translate(24.000000, 683.000000)">
                <rect id="Rectangle" x="0" y="0" width="24" height="24"></rect>
                <g id="Group-8-1" transform="translate(4.250000, 2.000000)" fill="#878C96">
                    <path d="M13.2590973,1.08345 L0.253557264,14.089 C-0.105582736,14.4481 -0.0801427355,15.0558 0.310387264,15.4464 C0.700907264,15.8369 1.30862726,15.8623 1.66776726,15.5032 L14.6732973,2.49766 C15.0323973,2.13853 15.0069973,1.53081 14.6164973,1.14028 C14.2258973,0.74976 13.6181973,0.72431 13.2590973,1.08345 Z" id="Path" fill-rule="nonzero"></path>
                    <path d="M14.7565973,9 C14.7565973,8.4477 14.3088973,8 13.7565973,8 C13.2042973,8 12.7565973,8.4477 12.7565973,9 C12.7565973,11.7614 10.5179973,14 7.75659726,14 C7.22219726,14 6.70729726,13.9162 6.22449726,13.7609 L4.64830726,15.3371 C5.29989726,15.6656 6.00909726,15.8935 6.75659726,16 L6.75659726,18 L4.75659726,18 C4.20659726,18 3.75659726,18.4872 3.75659726,19 C3.75659726,19.5523 4.20431726,20 4.75659726,20 L10.7565973,20 C11.3065973,20 11.7565973,19.5128 11.7565973,19 C11.7565973,18.4477 11.3088973,18 10.7565973,18 L8.75659726,18 L8.75659726,16 C12.1503973,15.5161 14.7565973,12.5275 14.7565973,9 Z M2.98762726,14.1694 L4.42689726,12.7301 C3.40187726,11.8145 2.75659726,10.4826 2.75659726,9 C2.75659726,8.4477 2.30887726,8 1.75659726,8 C1.20431726,8 0.756597264,8.4477 0.756597264,9 C0.756597264,11.0246 1.61475726,12.8715 2.98762726,14.1694 Z M7.49559726,12.4898 C7.58199726,12.4966 7.66899726,12.5 7.75659726,12.5 C9.68959726,12.5 11.2565973,10.933 11.2565973,9 L11.2565973,8.7288 L7.49559726,12.4898 Z M11.2565973,5.90039 L11.2565973,3.5 C11.2565973,1.57 9.62519726,0 7.75659726,0 C5.82359726,0 4.25659726,1.567 4.25659726,3.5 L4.25659726,9 C4.25659726,10.0603 4.74901726,11.012 5.50263726,11.6543 L6.91509726,10.2419 C6.51769726,9.9721 6.25659726,9.5165 6.25659726,9 L6.25659726,3.5 C6.25659726,2.67 6.97689726,2 7.75659726,2 C8.58499726,2 9.25659726,2.67157 9.25659726,3.5 L9.25659726,7.90039 L11.2565973,5.90039 Z" id="Shape"></path>
                </g>
            </g>
        </g>
    </g>
</svg>