<?xml version="1.0" encoding="UTF-8"?>
<svg width="52px" height="52px" viewBox="0 0 52 52" version="1.1" xmlns="http://www.w3.org/2000/svg" xmlns:xlink="http://www.w3.org/1999/xlink">
    <title>Group 7 Copy 19</title>
    <g id="DB-Regio-Bot-MVP" stroke="none" stroke-width="1" fill="none" fill-rule="evenodd">
        <g id="Group-29">
            <g id="9€" transform="translate(22.273926, 14.580566)" fill="#0087B9" fill-rule="nonzero">
                <path d="M4.93212891,5.53515625 C4.32698568,6.07682292 3.58219401,6.34765625 2.69775391,6.34765625 C1.72444661,6.34765625 1.0008138,6.04296875 0.526855469,5.43359375 C0.17561849,4.9765625 0,4.34814453 0,3.54833984 C0,2.4523112 0.359700521,1.59960938 1.07910156,0.990234375 C1.7561849,0.418945312 2.68082682,0.133300781 3.85302734,0.133300781 C5.26220703,0.133300781 6.32226562,0.562825521 7.03320312,1.421875 C7.36751302,1.82389323 7.6023763,2.3063151 7.73779297,2.86914062 C7.85205078,3.33886719 7.90917969,3.91650391 7.90917969,4.60205078 C7.90917969,5.78694661 7.70817057,6.7327474 7.30615234,7.43945312 C6.72639974,8.4593099 5.75520833,9.17447917 4.39257812,9.58496094 C3.61816406,9.81770833 2.68294271,9.96158854 1.58691406,10.0166016 C1.40917969,10.0250651 1.12565104,10.0356445 0.736328125,10.0483398 L0.736328125,8.09960938 C1.62076823,8.0530599 2.31266276,7.97265625 2.81201172,7.85839844 C3.47216797,7.70605469 3.9609375,7.48177083 4.27832031,7.18554688 C4.5999349,6.88932292 4.79671224,6.51057943 4.86865234,6.04931641 C4.8898112,5.93505859 4.91097005,5.76367188 4.93212891,5.53515625 Z M4.93212891,4.31005859 L4.93212891,4.11962891 L4.93212891,4.02441406 C4.93212891,3.36425781 4.875,2.87972005 4.76074219,2.57080078 C4.5999349,2.15185547 4.29313151,1.94238281 3.84033203,1.94238281 C3.45524089,1.94238281 3.19498698,2.07145182 3.05957031,2.32958984 C2.94108073,2.55810547 2.88183594,2.91357422 2.88183594,3.39599609 C2.88183594,3.88688151 2.96647135,4.21061198 3.13574219,4.3671875 C3.29231771,4.50683594 3.54199219,4.57666016 3.88476562,4.57666016 C4.26985677,4.57666016 4.61897786,4.48779297 4.93212891,4.31005859 Z" id="Shape"></path>
                <path d="M8.62011719,4.57666016 L8.62011719,3.31982422 L9.38818359,3.31982422 C9.48551432,2.49886068 9.75846354,1.82600911 10.2070312,1.30126953 C10.9560547,0.43375651 12.1261393,0 13.7172852,0 C14.5467122,0 15.3063151,0.112141927 15.9960938,0.336425781 L15.9960938,2.36132812 C15.3020833,2.10742188 14.6313477,1.98046875 13.9838867,1.98046875 C13.3110352,1.98046875 12.8561198,2.13069661 12.6191406,2.43115234 C12.4414062,2.65120443 12.335612,2.94742839 12.3017578,3.31982422 L14.5488281,3.31982422 L14.5488281,4.57666016 L12.2636719,4.57666016 L12.2636719,5.33203125 L14.5488281,5.33203125 L14.5488281,6.58886719 L12.2890625,6.58886719 C12.3313802,6.94010417 12.4265951,7.2257487 12.574707,7.44580078 C12.815918,7.80973307 13.2919922,7.99169922 14.0029297,7.99169922 C14.5826823,7.99169922 15.2682292,7.86897786 16.0595703,7.62353516 L16.0595703,9.48974609 C15.8310547,9.59977214 15.5771484,9.69075521 15.2978516,9.76269531 C14.7011719,9.9235026 14.1214193,10.0039062 13.5585938,10.0039062 C12.5218099,10.0039062 11.6437174,9.79020182 10.9243164,9.36279297 C10.0356445,8.83382161 9.51513672,7.90917969 9.36279297,6.58886719 L8.62011719,6.58886719 L8.62011719,5.33203125 L9.33740234,5.33203125 L9.33740234,4.57666016 L8.62011719,4.57666016 Z" id="Path"></path>
            </g>
            <g id="Group" transform="translate(9.750000, 11.375000)">
                <path d="M4.66898603,9.30043545 L4.66938776,15.6224072 C4.66938776,18.1735319 6.97388626,20.2495983 9.80571429,20.2495983 L20.6484996,20.2495983 C21.016603,20.2495983 21.3812822,20.3591085 21.677477,20.5580777 L25.4179736,23.0850818 C24.7362186,24.9208635 22.8092872,26.2478089 20.5453061,26.2478089 L20.5453061,26.2478089 L9.70252082,26.2478089 C9.33441741,26.2478089 8.96973823,26.3573191 8.67525551,26.5562883 L8.67525551,26.5562883 L2.73937415,30.5665206 C2.43804299,30.7716594 2.07507592,30.875 1.71210884,30.875 C1.4518683,30.875 1.18820354,30.8210161 0.94679619,30.7130483 C0.366391293,30.4508408 0,29.9171715 0,29.332603 L0,29.332603 L0,13.9086328 C0,11.4994083 2.05526399,9.51386385 4.66898603,9.30043545 Z" id="Combined-Shape" fill="#282D37"></path>
                <path d="M27.5971429,0 L12.8885714,0 C10.1854629,0 7.98571429,2.07606639 7.98571429,4.62719106 L7.98571429,12.3391762 C7.98571429,14.8903008 10.1854629,16.9663672 12.8885714,16.9663672 L23.2385029,16.9663672 C23.5898743,16.9663672 23.9379771,17.0758774 24.2207086,17.2748466 L29.8851429,21.2850789 C30.1727771,21.4902177 30.5192457,21.5935583 30.8657143,21.5935583 C31.1141257,21.5935583 31.3658057,21.5395744 31.59624,21.4316066 C32.1502629,21.1693991 32.5,20.6357297 32.5,20.0511613 L32.5,4.62719106 C32.5,2.07606639 30.3002514,0 27.5971429,0" id="Fill-7" stroke="#0087B9" stroke-width="1.95"></path>
            </g>
        </g>
    </g>
</svg>