<?xml version="1.0" encoding="UTF-8"?>
<svg width="27px" height="25px" viewBox="0 0 27 25" version="1.1" xmlns="http://www.w3.org/2000/svg" xmlns:xlink="http://www.w3.org/1999/xlink">
    <title>bot_icon</title>
    <g id="DB-Regio-Bot-MVP" stroke="none" stroke-width="1" fill="none" fill-rule="evenodd">
        <g id="bot_icon" transform="translate(0.500000, 1.400000)">
            <path d="M3.59145818,7.01433051 L3.59183673,11.7823129 C3.59183673,13.7063537 5.36452789,15.2721088 7.54285714,15.2721088 L15.8834612,15.2721088 C16.1666177,15.2721088 16.4471401,15.3547007 16.6749823,15.5047619 L19.5519482,17.4115061 C19.0272216,18.7955764 17.5452303,19.7959184 15.8040816,19.7959184 L15.8040816,19.7959184 L7.46347755,19.7959184 C7.18032109,19.7959184 6.89979864,19.8785102 6.67327347,20.0285714 L6.67327347,20.0285714 L2.10721088,23.0530612 C1.87541769,23.2077755 1.59621224,23.2857143 1.3170068,23.2857143 C1.11682177,23.2857143 0.914002721,23.245 0.728304762,23.1635714 C0.281839456,22.9658163 0,22.5633265 0,22.122449 L0,22.122449 L0,10.4897959 C0,8.67279618 1.58093585,7.17532571 3.59145818,7.01433051 Z" id="Combined-Shape" fill="#282D37"></path>
            <path d="M21.2285714,0 L9.91428571,0 C7.83497143,0 6.14285714,1.5657551 6.14285714,3.48979592 L6.14285714,9.30612245 C6.14285714,11.2301633 7.83497143,12.7959184 9.91428571,12.7959184 L17.8757714,12.7959184 C18.1460571,12.7959184 18.4138286,12.8785102 18.6313143,13.0285714 L22.9885714,16.0530612 C23.2098286,16.2077755 23.4763429,16.2857143 23.7428571,16.2857143 C23.9339429,16.2857143 24.1275429,16.245 24.3048,16.1635714 C24.7309714,15.9658163 25,15.5633265 25,15.122449 L25,3.48979592 C25,1.5657551 23.3078857,0 21.2285714,0" id="Fill-7" stroke="#EC0016" stroke-width="1.5"></path>
        </g>
    </g>
</svg>