<?xml version="1.0" encoding="UTF-8"?>
<svg width="16px" height="16px" viewBox="0 0 16 16" version="1.1" xmlns="http://www.w3.org/2000/svg" xmlns:xlink="http://www.w3.org/1999/xlink">
    <title>recording</title>
    <g id="DB-Regio-Bot-MVP" stroke="none" stroke-width="1" fill="none" fill-rule="evenodd">
        <g id="Bot_Mobile_Buttons-Copy-5" transform="translate(-28.000000, -687.000000)" fill="#EC0016">
            <g id="recording" transform="translate(24.000000, 683.000000)">
                <path d="M12,4.5 C16.125,4.5 19.5,7.875 19.5,12 C19.5,16.125 16.125,19.5 12,19.5 C7.875,19.5 4.5,16.125 4.5,12 C4.5,7.875 7.875,4.5 12,4.5 Z M12,6.5 C8.9688,6.5 6.5,8.9688 6.5,12 C6.5,15.0312 8.9688,17.5 12,17.5 C15.0312,17.5 17.5,15.0312 17.5,12 C17.5,8.9688 15.0312,6.5 12,6.5 Z M10,12 C10,10.9062 10.9062,10 12,10 C13.0938,10 14,10.9062 14,12 C14,13.0938 13.0938,14 12,14 C10.9062,14 10,13.0938 10,12 Z" id="🎨-Color"></path>
            </g>
        </g>
    </g>
</svg>