<?xml version="1.0" encoding="UTF-8"?>
<svg width="34px" height="34px" viewBox="0 0 34 34" version="1.1" xmlns="http://www.w3.org/2000/svg" xmlns:xlink="http://www.w3.org/1999/xlink">
    <title>Group 6</title>
    <g id="Icon" stroke="none" stroke-width="1" fill="none" fill-rule="evenodd">
        <g id="mobile–s-1-copy-10" transform="translate(-16.000000, -103.000000)">
            <g id="Group-6" transform="translate(16.000000, 103.000000)">
                <path d="M5.17896735,9.3499916 L5.17957559,16.3240735 C5.17957559,19.1383515 7.7358688,21.4285681 10.8771087,21.4285681 L22.9046012,21.4285681 C23.3129244,21.4285681 23.7174493,21.5493744 24.046007,21.7688677 L28.1951032,24.5567926 C27.4387738,26.5818062 25.3013757,28.0455054 22.7901326,28.0455054 L22.7901326,28.0455054 L10.7626401,28.0455054 C10.3543169,28.0455054 9.94979206,28.1663118 9.62313349,28.3858051 L9.62313349,28.3858051 L3.03868435,32.8097004 C2.70442907,33.0359996 2.30180339,33.15 1.89917772,33.15 C1.6105027,33.15 1.31802934,33.0904476 1.05024528,32.9713427 C0.406424032,32.682088 0,32.0933696 0,31.4485018 L0,31.4485018 L0,14.43352 C0,11.7758291 2.27974152,9.58550424 5.17896735,9.3499916 Z" id="Combined-Shape" fill="#FFE200"></path>
                <path d="M28.6926829,0 L12.7707317,0 C9.84463089,0 7.46341463,2.2882 7.46341463,5.1 L7.46341463,13.6 C7.46341463,16.4118 9.84463089,18.7 12.7707317,18.7 L23.974478,18.7 C24.3548358,18.7 24.7316553,18.8207 25.0377106,19.04 L31.1694309,23.46 C31.4807935,23.6861 31.8558439,23.8 32.2308943,23.8 C32.4997984,23.8 32.7722407,23.7405 33.0216846,23.6215 C33.6214114,23.3325 34,22.7443 34,22.1 L34,5.1 C34,2.2882 31.6187837,0 28.6926829,0" id="Fill-7" fill="#0066A9"></path>
            </g>
        </g>
    </g>
</svg>